<svg width="162" height="40" viewBox="0 0 162 40" fill="none" xmlns="http://www.w3.org/2000/svg">
<mask id="mask0_870_5813" style="mask-type:alpha" maskUnits="userSpaceOnUse" x="0" y="0" width="162" height="40">
<rect width="161.25" height="40" fill="white"/>
</mask>
<g mask="url(#mask0_870_5813)">
<path d="M16.25 17.5C17.6307 17.5 18.75 16.3807 18.75 15C18.75 13.6193 17.6307 12.5 16.25 12.5C14.8693 12.5 13.75 13.6193 13.75 15C13.75 16.3807 14.8693 17.5 16.25 17.5Z" fill="url(#paint0_linear_870_5813)"/>
<path d="M31.25 15C31.25 16.3807 30.1307 17.5 28.75 17.5C27.3693 17.5 26.25 16.3807 26.25 15C26.25 13.6193 27.3693 12.5 28.75 12.5C30.1307 12.5 31.25 13.6193 31.25 15Z" fill="url(#paint1_linear_870_5813)"/>
<path fill-rule="evenodd" clip-rule="evenodd" d="M7.5 15C7.5 12.6703 7.5 11.5054 7.8806 10.5866C8.38807 9.36144 9.36144 8.38807 10.5866 7.8806C11.5054 7.5 12.6703 7.5 15 7.5H30C32.3297 7.5 33.4946 7.5 34.4134 7.8806C35.6386 8.38807 36.6119 9.36144 37.1194 10.5866C37.5 11.5054 37.5 12.6703 37.5 15C37.5 17.3297 37.5 18.4946 37.1194 19.4134C36.6119 20.6386 35.6386 21.6119 34.4134 22.1194C33.4946 22.5 32.3297 22.5 30 22.5H15C12.6703 22.5 11.5054 22.5 10.5866 22.1194C9.36144 21.6119 8.38807 20.6386 7.8806 19.4134C7.5 18.4946 7.5 17.3297 7.5 15ZM15 10H30C31.1991 10 31.9732 10.0014 32.5656 10.0418C33.1356 10.0807 33.3527 10.1472 33.4567 10.1903C34.0693 10.444 34.556 10.9307 34.8097 11.5433C34.8528 11.6473 34.9193 11.8644 34.9582 12.4344C34.9986 13.0269 35 13.8009 35 15C35 16.1991 34.9986 16.9732 34.9582 17.5656C34.9193 18.1356 34.8528 18.3527 34.8097 18.4567C34.556 19.0693 34.0693 19.556 33.4567 19.8097C33.3527 19.8528 33.1356 19.9193 32.5656 19.9582C31.9732 19.9986 31.1991 20 30 20H15C13.8009 20 13.0269 19.9986 12.4344 19.9582C11.8644 19.9193 11.6473 19.8528 11.5433 19.8097C10.9307 19.556 10.444 19.0693 10.1903 18.4567C10.1472 18.3527 10.0807 18.1356 10.0418 17.5656C10.0014 16.9732 10 16.1991 10 15C10 13.8009 10.0014 13.0269 10.0418 12.4344C10.0807 11.8644 10.1472 11.6473 10.1903 11.5433C10.444 10.9307 10.9307 10.444 11.5433 10.1903C11.6473 10.1472 11.8644 10.0807 12.4344 10.0418C13.0269 10.0014 13.8009 10 15 10Z" fill="url(#paint2_linear_870_5813)"/>
<path d="M12.25 23.75H14.568C16.6021 23.75 17.6191 23.75 17.9935 24.2653C18.1095 24.4249 18.186 24.6096 18.2168 24.8045C18.3165 25.4335 17.5973 26.1527 16.159 27.591L13.841 29.909C12.4027 31.3473 11.6835 32.0665 11.0545 31.9668C10.8596 31.936 10.6749 31.8595 10.5153 31.7435C10 31.3691 10 30.3521 10 28.318V26C10 25.0626 10 24.5939 10.2387 24.2653C10.3158 24.1591 10.4092 24.0658 10.5153 23.9887C10.8439 23.75 11.3126 23.75 12.25 23.75Z" fill="url(#paint3_linear_870_5813)"/>
<path d="M133.247 27.6998C132.433 27.6998 131.687 27.5998 131.007 27.3998C130.327 27.1864 129.713 26.8731 129.167 26.4598C128.62 26.0464 128.133 25.5464 127.707 24.9598L129.407 23.0398C130.06 23.9464 130.7 24.5731 131.327 24.9198C131.953 25.2664 132.66 25.4398 133.447 25.4398C133.9 25.4398 134.313 25.3731 134.687 25.2398C135.06 25.0931 135.353 24.8998 135.567 24.6598C135.78 24.4064 135.887 24.1198 135.887 23.7998C135.887 23.5731 135.84 23.3664 135.747 23.1798C135.667 22.9798 135.54 22.8064 135.367 22.6598C135.193 22.4998 134.98 22.3531 134.727 22.2198C134.473 22.0864 134.187 21.9731 133.867 21.8798C133.547 21.7864 133.193 21.6998 132.807 21.6198C132.073 21.4731 131.433 21.2798 130.887 21.0398C130.34 20.7864 129.88 20.4798 129.507 20.1198C129.133 19.7464 128.86 19.3331 128.687 18.8798C128.513 18.4131 128.427 17.8864 128.427 17.2998C128.427 16.7131 128.553 16.1731 128.807 15.6798C129.073 15.1864 129.433 14.7598 129.887 14.3998C130.34 14.0398 130.867 13.7598 131.467 13.5598C132.067 13.3598 132.713 13.2598 133.407 13.2598C134.193 13.2598 134.893 13.3531 135.507 13.5398C136.133 13.7264 136.68 14.0064 137.147 14.3798C137.627 14.7398 138.02 15.1798 138.327 15.6998L136.607 17.3998C136.34 16.9864 136.04 16.6464 135.707 16.3798C135.373 16.0998 135.013 15.8931 134.627 15.7598C134.24 15.6131 133.833 15.5398 133.407 15.5398C132.927 15.5398 132.507 15.6064 132.147 15.7398C131.8 15.8731 131.527 16.0664 131.327 16.3198C131.127 16.5598 131.027 16.8531 131.027 17.1998C131.027 17.4664 131.087 17.7064 131.207 17.9198C131.327 18.1198 131.493 18.2998 131.707 18.4598C131.933 18.6198 132.22 18.7598 132.567 18.8798C132.913 18.9998 133.307 19.1064 133.747 19.1998C134.48 19.3464 135.14 19.5464 135.727 19.7998C136.313 20.0398 136.813 20.3331 137.227 20.6798C137.64 21.0131 137.953 21.3998 138.167 21.8398C138.38 22.2664 138.487 22.7464 138.487 23.2798C138.487 24.1998 138.267 24.9931 137.827 25.6598C137.4 26.3131 136.793 26.8198 136.007 27.1798C135.22 27.5264 134.3 27.6998 133.247 27.6998Z" fill="#1A1E25"/>
<path d="M107.766 27.6998C106.753 27.6998 105.826 27.5264 104.986 27.1798C104.146 26.8331 103.419 26.3398 102.806 25.6998C102.193 25.0464 101.713 24.2798 101.366 23.3998C101.033 22.5064 100.866 21.5331 100.866 20.4798C100.866 19.4664 101.046 18.5264 101.406 17.6598C101.766 16.7931 102.266 16.0331 102.906 15.3798C103.546 14.7264 104.293 14.2198 105.146 13.8598C105.999 13.4998 106.926 13.3198 107.926 13.3198C108.606 13.3198 109.266 13.4198 109.906 13.6198C110.546 13.8198 111.133 14.0998 111.666 14.4598C112.199 14.8064 112.646 15.2131 113.006 15.6798L111.346 17.4998C110.999 17.1398 110.639 16.8398 110.266 16.5998C109.906 16.3464 109.526 16.1598 109.126 16.0398C108.739 15.9064 108.339 15.8398 107.926 15.8398C107.313 15.8398 106.733 15.9531 106.186 16.1798C105.653 16.4064 105.186 16.7264 104.786 17.1398C104.399 17.5531 104.093 18.0464 103.866 18.6198C103.639 19.1798 103.526 19.8064 103.526 20.4998C103.526 21.2064 103.633 21.8464 103.846 22.4198C104.073 22.9931 104.386 23.4864 104.786 23.8998C105.199 24.3131 105.686 24.6331 106.246 24.8598C106.819 25.0731 107.446 25.1798 108.126 25.1798C108.566 25.1798 108.993 25.1198 109.406 24.9998C109.819 24.8798 110.199 24.7131 110.546 24.4998C110.906 24.2731 111.233 24.0131 111.526 23.7198L112.806 25.7798C112.486 26.1398 112.059 26.4664 111.526 26.7598C110.993 27.0531 110.393 27.2864 109.726 27.4598C109.073 27.6198 108.419 27.6998 107.766 27.6998Z" fill="#1A1E25"/>
<path d="M59.8696 27.6998C59.1096 27.6998 58.4496 27.5331 57.8896 27.1998C57.3296 26.8531 56.9029 26.3664 56.6096 25.7398C56.3163 25.0998 56.1696 24.3398 56.1696 23.4598V16.9598H58.6296V22.9398C58.6296 23.4998 58.7163 23.9798 58.8896 24.3798C59.0629 24.7664 59.3163 25.0664 59.6496 25.2798C59.9829 25.4931 60.3829 25.5998 60.8496 25.5998C61.1963 25.5998 61.5096 25.5464 61.7896 25.4398C62.0829 25.3198 62.3363 25.1598 62.5496 24.9598C62.7629 24.7464 62.9296 24.4998 63.0496 24.2198C63.1696 23.9264 63.2296 23.6131 63.2296 23.2798V16.9598H65.6896V27.4998H63.2896L63.2612 25.9407C63.1471 26.1081 63.0165 26.2678 62.8696 26.4198C62.4963 26.8064 62.0496 27.1198 61.5296 27.3598C61.0096 27.5864 60.4563 27.6998 59.8696 27.6998Z" fill="#1A1E25"/>
<path fill-rule="evenodd" clip-rule="evenodd" d="M80.4127 27.6998C79.3593 27.6998 78.4193 27.4664 77.5926 26.9998C76.766 26.5198 76.1126 25.8664 75.6326 25.0398C75.1526 24.2131 74.9126 23.2731 74.9126 22.2198C74.9126 21.1664 75.1526 20.2264 75.6326 19.3998C76.1126 18.5731 76.766 17.9264 77.5926 17.4598C78.4193 16.9798 79.3593 16.7398 80.4127 16.7398C81.4527 16.7398 82.386 16.9798 83.2127 17.4598C84.0393 17.9264 84.686 18.5731 85.1526 19.3998C85.6327 20.2264 85.8727 21.1664 85.8727 22.2198C85.8727 23.2731 85.6327 24.2131 85.1526 25.0398C84.686 25.8664 84.0393 26.5198 83.2127 26.9998C82.386 27.4664 81.4527 27.6998 80.4127 27.6998ZM80.4127 25.5198C80.986 25.5198 81.4926 25.3731 81.9326 25.0798C82.386 24.7864 82.7393 24.3931 82.9926 23.8998C83.2593 23.4064 83.386 22.8464 83.3727 22.2198C83.386 21.5798 83.2593 21.0131 82.9926 20.5198C82.7393 20.0264 82.386 19.6398 81.9326 19.3598C81.4926 19.0664 80.986 18.9198 80.4127 18.9198C79.8393 18.9198 79.3193 19.0664 78.8526 19.3598C78.3993 19.6398 78.046 20.0331 77.7926 20.5398C77.5393 21.0331 77.4126 21.5931 77.4126 22.2198C77.4126 22.8464 77.5393 23.4064 77.7926 23.8998C78.046 24.3931 78.3993 24.7864 78.8526 25.0798C79.3193 25.3731 79.8393 25.5198 80.4127 25.5198Z" fill="#1A1E25"/>
<path d="M90.1865 18.7598L90.1651 16.9598H87.7451V27.4998H90.2251V21.8798C90.2251 21.5064 90.2851 21.1731 90.4051 20.8798C90.5385 20.5731 90.7185 20.3064 90.9451 20.0798C91.1718 19.8531 91.4318 19.6798 91.7251 19.5598C92.0318 19.4264 92.3518 19.3598 92.6851 19.3598C92.8985 19.3598 93.1118 19.3864 93.3251 19.4398C93.5385 19.4931 93.7185 19.5598 93.8651 19.6398L94.5251 16.9398C94.3918 16.8864 94.2185 16.8398 94.0051 16.7998C93.8051 16.7598 93.5918 16.7398 93.3651 16.7398C92.8451 16.7398 92.3451 16.8664 91.8651 17.1198C91.3985 17.3598 90.9851 17.6931 90.6251 18.1198C90.4552 18.3212 90.309 18.5345 90.1865 18.7598Z" fill="#1A1E25"/>
<path fill-rule="evenodd" clip-rule="evenodd" d="M123.024 24.2998L124.23 27.4998H126.93L121.51 13.4998H119.07L113.61 27.4998H116.21L117.425 24.2998H123.024ZM122.172 22.0398L121.23 19.5398C121.163 19.3798 121.07 19.1264 120.95 18.7798C120.843 18.4331 120.723 18.0598 120.59 17.6598C120.459 17.254 120.341 16.8803 120.236 16.5388L120.21 16.6198C120.103 16.9531 119.99 17.2998 119.87 17.6598C119.75 18.0198 119.63 18.3664 119.51 18.6998C119.403 19.0331 119.303 19.3331 119.21 19.5998L118.283 22.0398H122.172Z" fill="#1A1E25"/>
<path d="M150.933 23.7062L143.358 13.4998H141.018V27.4998H143.598V22.0798C143.598 21.8931 143.591 21.6998 143.578 21.4998C143.578 21.2864 143.564 21.0531 143.538 20.7998C143.524 20.5464 143.504 20.2331 143.478 19.8598C143.451 19.4731 143.411 19.0198 143.358 18.4998C143.336 18.204 143.309 17.8753 143.279 17.5139L150.838 27.4998H153.218V13.4998H150.638V17.6998C150.638 18.2731 150.644 18.8198 150.658 19.3398C150.671 19.8464 150.684 20.3331 150.698 20.7998C150.724 21.2664 150.751 21.7131 150.778 22.1398C150.818 22.5664 150.858 22.9798 150.898 23.3798C150.909 23.4891 150.921 23.5979 150.933 23.7062Z" fill="#1A1E25"/>
<path d="M49.6799 27.4998V15.8998H45.6799V13.4998H56.3999V15.8998H52.2799V27.4998H49.6799Z" fill="#1A1E25"/>
<path d="M69.3849 19.2398V27.4998H71.8449V19.2398H74.1449V16.9598H71.8449V14.2798H69.3849V16.9598H67.3049V19.2398H69.3849Z" fill="#1A1E25"/>
</g>
<defs>
<linearGradient id="paint0_linear_870_5813" x1="22.5" y1="7.5" x2="22.5" y2="31.976" gradientUnits="userSpaceOnUse">
<stop stop-color="#54ABFF"/>
<stop offset="1" stop-color="#086EFF"/>
</linearGradient>
<linearGradient id="paint1_linear_870_5813" x1="22.5" y1="7.5" x2="22.5" y2="31.976" gradientUnits="userSpaceOnUse">
<stop stop-color="#54ABFF"/>
<stop offset="1" stop-color="#086EFF"/>
</linearGradient>
<linearGradient id="paint2_linear_870_5813" x1="22.5" y1="7.5" x2="22.5" y2="31.976" gradientUnits="userSpaceOnUse">
<stop stop-color="#54ABFF"/>
<stop offset="1" stop-color="#086EFF"/>
</linearGradient>
<linearGradient id="paint3_linear_870_5813" x1="22.5" y1="7.5" x2="22.5" y2="31.976" gradientUnits="userSpaceOnUse">
<stop stop-color="#54ABFF"/>
<stop offset="1" stop-color="#086EFF"/>
</linearGradient>
</defs>
</svg>
